{"title":"The Script Complete Discography  [2008-2012][ MP3 @ 320Kbps] -=S","uid":9061229,"size":543418624,"categoryP":"audio","categoryS":"other","magnet":"?xt=urn:btih:6f41606a140671dae0c383ed8bdff44a81f58eed&amp;dn=The+Script+Complete+Discography++%5B2008-2012%5D%5B+MP3+%40+320Kbps%5D+-%3DS&amp;tr=udp%3A%2F%2Ftracker.openbittorrent.com%3A80&amp;tr=udp%3A%2F%2Fopen.demonii.com%3A1337&amp;tr=udp%3A%2F%2Ftracker.coppersurfer.tk%3A6969&amp;tr=udp%3A%2F%2Fexodus.desync.com%3A6969","seeders":27,"leechers":8,"uploader":"spiderot","files":62,"time":1382045812,"description":"The Script Complete Discography [2008-2012][ MP3 @ 320Kbps]\n\n\nimage\n\n\nFormat : MP3\n\nBitrate : 320Kbps\n\nThe Script\n\nThe Script are an Irish rock band from Dublin formed in 2001.Based in London after signing to Sony Label Group imprint Phonogenic, the band released their eponymous debut album in August 2008, featuring the hit songs &quot;The Man Who Can't Be Moved&quot; and &quot;Breakeven&quot;. The album debuted at number one in Ireland and the UK. Their second album, Science &amp; Faith, was released in September 2010, and contains the hit songs &quot;For the First Time&quot; and &quot;Nothing&quot;. The album debuted at number one in Ireland and the UK, and number three on the US Billboard 200. Their third album #3 debuted at number one in Ireland and the UK.\nTheir music has been featured in popular television programs such as 90210, Ghost Whisperer, The Hills, Waterloo Road, EastEnders, Made in Chelsea and The Vampire Diaries. Frontman Danny O'Donoghue was also a coach on The Voice UK for seasons 1 and 2, before leaving the show in order to focus more on the band. In 2009 Industry Victoria's Secret chose &quot;The Man Who Can't Be Moved&quot; as the theme for its annual parade The Victoria's Secret Fashion Show 2009 for the opening segment and the Enchanted Forest segment with Heidi Klum.\n\n\nDiscography\n\nStudio albums\n\n1. The Script (2008)\n2. Science &amp; Faith (2010)\n3. #3 (2012)\n\n\n1. The Script (2008) [ MP3 @ 320Kbps]\n\nimage\n\n\n1. &quot;We Cry&quot; 3:43\n2. &quot;Before the Worst&quot; 3:23\n3. &quot;Talk You Down&quot; 3:50\n4. &quot;The Man Who Can't Be Moved&quot; 4:01\n5. &quot;Breakeven&quot; 4:21\n6. &quot;Rusty Halo&quot; 3:34\n7. &quot;The End Where I Begin&quot; 3:34\n8. &quot;Fall for Anything&quot; 4:32\n9. &quot;If You See Kay&quot; 3:12\n10. &quot;I'm Yours&quot; 4:13\n11. &quot;Anybody There&quot; 3:00\n\nFormat : MPEG Audio\nFile size : 8.58 MiB\nDuration : 3mn 44s\nOverall bit rate mode : Constant\nOverall bit rate : 320 Kbps\nAlbum : The Script\nTrack name : We Cry\nTrack name/Position : 1\nPerformer : The Script\nPublisher : Rca Int. (Sony Music)\nGenre : Indie\nRecorded date : 2008\nWriting library : LAME3.97 \n\nAudio\nFormat : MPEG Audio\nFormat version : Version 1\nFormat profile : Layer 3\nDuration : 3mn 44s\nBit rate mode : Constant\nBit rate : 320 Kbps\nChannel(s) : 2 channels\nSampling rate : 44.1 KHz\nCompression mode : Lossy\nStream size : 8.57 MiB (100%)\nWriting library : LAME3.97 \nEncoding settings : -m s -V 4 -q 5 -lowpass 20.5\n\n\n\n2. Science &amp; Faith (2010) [ MP3 @ 320Kbps]\n\nimage\n\n\n1. &quot;You Won't Feel a Thing&quot; 4:33\n2. &quot;For the First Time&quot; 4:12\n3. &quot;Nothing&quot; 4:32\n4. &quot;Science &amp; Faith&quot; 4:20\n5. &quot;If You Ever Come Back&quot; 4:02\n6. &quot;Long Gone and Moved On&quot; 4:17\n7. &quot;Dead Man Walking&quot; 3:54\n8. &quot;This = Love&quot; 4:21\n9. &quot;Walk Away&quot; 3:36\n10. &quot;Exit Wounds&quot; 4:25\n\nFormat : MPEG Audio\nFile size : 9.01 MiB\nDuration : 3mn 54s\nOverall bit rate mode : Constant\nOverall bit rate : 320 Kbps\nAlbum : Science &amp; Faith\nAlbum/Performer : The Script\nTrack name : Deadman walking\nTrack name/Position : 07\nPerformer : The Script\nPublisher : Rca Int. (Sony Music)\nGenre : Pop/Rock\nRecorded date : 2010\nWriting library : LAME3.97 \nCover : Yes\nCover description : Science &amp; Faith\nCover type : Cover (front)\nCover MIME : image/jpeg\n\nAudio\nFormat : MPEG Audio\nFormat version : Version 1\nFormat profile : Layer 3\nMode : Joint stereo\nMode extension : MS Stereo\nDuration : 3mn 54s\nBit rate mode : Constant\nBit rate : 320 Kbps\nChannel(s) : 2 channels\nSampling rate : 44.1 KHz\nCompression mode : Lossy\nStream size : 8.94 MiB (99%)\nWriting library : LAME3.97 \nEncoding settings : -m j -V 4 -q 3 -lowpass 20.5\n\n\n\n3. #3 (2012) [ MP3 @ 320Kbps]\n\nimage\n\n\nCD-1\n\n1. &quot;Good Ol' Days&quot; 4:23\n2. &quot;Six Degrees of Separation&quot; 3:52\n3. &quot;Hall of Fame&quot; (with will.i.am) 3:22\n4. &quot;If You Could See Me Now&quot; 3:39\n5. &quot;Glowing&quot; 4:46\n6. &quot;Give the Love Around&quot; 4:24\n7. &quot;Broken Arrow&quot; 4:34\n8. &quot;Kaleidoscope&quot; 3:41\n9. &quot;No Words&quot; 4:05\n10. &quot;Millionaires&quot; 3:11\n\nCD-2\n\n1. &quot;Moon Boots&quot; 4:11\n2. &quot;Hurricanes&quot; 4:40\n3. &quot;Hall of Fame&quot; (Original Version) 3:23\n4. &quot;Breakeven&quot; (Live at the Aviva Stadium, Dublin) 5:38\n5. &quot;The Man Who Can't Be Moved&quot; (Live at the Aviva Stadium, Dublin) 4:55\n6. &quot;Talk You Down&quot; (Live at the Aviva Stadium, Dublin) 4:58\n7. &quot;For the First Time&quot; (Live at the Aviva Stadium, Dublin) 5:04\n\nFormat : MPEG Audio\nFile size : 8.33 MiB\nDuration : 3mn 22s\nOverall bit rate mode : Constant\nOverall bit rate : 320 Kbps\nAlbum : #3 (CD1)\nPart/Position : 1\nPart/Total : 2\nTrack name : Hall Of Fame (Ft. Will.I.Am)\nTrack name/Position : 3\nTrack name/Total : 10\nPerformer : The Script\nPublisher : Rca Int. (Sony Music)\nGenre : Pop\nRecorded date : 2012\nWriting library : LAME3.97 \nCover : Yes\nCover type : Cover (front)\nCover MIME : image/jpeg\n\nAudio\nFormat : MPEG Audio\nFormat version : Version 1\nFormat profile : Layer 3\nDuration : 3mn 22s\nBit rate mode : Constant\nBit rate : 320 Kbps\nChannel(s) : 2 channels\nSampling rate : 44.1 KHz\nCompression mode : Lossy\nStream size : 7.73 MiB (93%)\nWriting library : LAME3.97 \nEncoding settings : -m s -V 1 -q 2 -lowpass 20.5\n\n\n\nVideo songs\n\n1. The Script - Breakeven [480p]\n2. The Script - Hall of Fame ft. will.i.am.[720p]\n3. The Script - Millionaires [1080p x264]\n4. The Script - We Cry [480p]\n\n\n\nimage\n\n\nPLEASE SEED AND COMMENT\n","torrent":{"xt":"urn:btih:6f41606a140671dae0c383ed8bdff44a81f58eed","amp;dn":"The+Script+Complete+Discography++%5B2008-2012%5D%5B+MP3+%40+320Kbps%5D+-%3DS","amp;tr":["udp%3A%2F%2Ftracker.openbittorrent.com%3A80","udp%3A%2F%2Fopen.demonii.com%3A1337","udp%3A%2F%2Ftracker.coppersurfer.tk%3A6969","udp%3A%2F%2Fexodus.desync.com%3A6969"],"infoHash":"6f41606a140671dae0c383ed8bdff44a81f58eed","infoHashBuffer":{"type":"Buffer","data":[111,65,96,106,20,6,113,218,224,195,131,237,139,223,244,74,129,245,142,237]},"announce":[],"urlList":[]}}